<svg xmlns="http://www.w3.org/2000/svg" viewBox="0 0 512 512" fill = "#ffffff">
    <path d="M119.436 36c-16.126 0-29.2 17.237-29.2 38.5v363c0 21.263 13.074 38.5 29.2 38.5h275.298c16.126 0 29.198-17.237 29.198-38.5v-363c0-21.263-13.072-38.5-29.198-38.5zm26.369 10.951l11.002 32.856 34.648.312-27.848 20.617 10.41 33.05-28.212-20.114-28.215 20.113L128 100.736 100.152 80.12l34.649-.312zM363.979 161.84c7.127 9.459 12.739 20.689 16.832 32.04 3.8 10.544 6.197 21.211 6.668 31.02-.163 19.015-3.915 23.274-14.557 36.934l-6.703-11.48c-10.85-13.106-30.779-48.4-47.383-43.672-6.521 6.11-8.996 13.37-10.313 20.802 2.898 8.8 4.477 18.43 4.477 28.516 0 15.293-3.615 29.54-9.996 41.416 22.643 4.537 57.927 19.332 57.973 39.223-.27 3.783-1.835 7.68-4.362 10.42-10.743 12.528-36.958 4.125-45.2 10.072.796 6.947 4.112 14.118 4.355 20.174.136 4.36-1.768 10.58-6.508 13.996-5.67 4.087-12.968 4.551-18.52 3.045C279.94 392.226 272 379.649 256 377c-13.544 3.491-22.412 13.87-34.742 17.346-5.552 1.506-12.85 1.042-18.52-3.045-4.74-3.417-6.644-9.636-6.508-13.996-.058-7.142 4.107-13.794 4.356-20.174-15.741-7.788-33.816 1.97-45.201-10.072-2.527-2.74-4.093-6.637-4.362-10.42 6.146-27.341 35.374-34.684 57.973-39.223C202.615 285.54 199 271.293 199 256c0-11.489 2.047-22.385 5.764-32.033 1.316-7.434 3.792-14.693 10.313-20.803 16.604-4.728 36.533 30.566 47.383 43.672l6.703 11.48c10.641-13.66 14.394-17.919 14.557-36.934-.471-9.809-2.868-20.476-6.668-31.02-4.094-11.351-9.705-22.581-16.832-32.04z"></path>
</svg>
